# Blender 3.3.1
# www.blender.org
mtllib quarterpipe1.mtl
o Cube
v 5.000000 9.500000 -5.000000
v 5.000000 -0.500000 -5.000000
v -5.000000 7.549097 -4.807853
v 5.000000 7.549097 -4.807853
v 5.000000 -0.500000 5.000000
v -5.000000 5.673165 -4.238795
v -5.000000 9.500000 -5.000000
v -5.000000 -0.500000 -5.000000
v 5.000000 5.673165 -4.238795
v -5.000000 3.944298 -3.314696
v -5.000000 -0.500000 5.000000
v 5.000000 3.944298 -3.314696
v -5.000000 2.428932 -2.071068
v 5.000000 2.428932 -2.071068
v -5.000000 1.185304 -0.555702
v 5.000000 1.185304 -0.555702
v -5.000000 0.261205 1.173165
v 5.000000 0.261205 1.173165
v -5.000000 -0.307853 3.049097
v 5.000000 -0.307853 3.049097
vn -1.0000 -0.0000 -0.0000
vn -0.0000 -1.0000 -0.0000
vn 1.0000 -0.0000 -0.0000
vn -0.0000 -0.0000 -1.0000
vn -0.0000 0.0980 0.9952
vn -0.0000 0.2903 0.9569
vn -0.0000 0.4714 0.8819
vn -0.0000 0.6344 0.7730
vn -0.0000 0.7730 0.6344
vn -0.0000 0.8819 0.4714
vn -0.0000 0.9569 0.2903
vn -0.0000 0.9952 0.0980
vt 0.625000 0.500000
vt 1.000000 1.000000
vt 0.375000 0.500000
vt 0.576227 0.245196
vt 0.968750 0.500000
vt 0.576227 0.504804
vt 0.968750 1.000000
vt 0.375000 0.750000
vt 0.750000 1.000000
vt 0.529329 0.230970
vt 0.937500 0.500000
vt 0.625000 0.250000
vt 1.000000 0.500000
vt 0.125000 0.500000
vt 0.375000 0.250000
vt 0.529329 0.519030
vt 0.937500 1.000000
vt 0.486107 0.207867
vt 0.906250 0.500000
vt 0.375000 0.000000
vt 0.125000 0.750000
vt 0.750000 0.500000
vt 0.486107 0.542133
vt 0.906250 1.000000
vt 0.448223 0.176777
vt 0.875000 0.500000
vt 0.448223 0.573223
vt 0.875000 1.000000
vt 0.417133 0.138893
vt 0.843750 0.500000
vt 0.417133 0.611107
vt 0.843750 1.000000
vt 0.394030 0.095671
vt 0.812500 0.500000
vt 0.394030 0.654329
vt 0.812500 1.000000
vt 0.379804 0.048773
vt 0.781250 0.500000
vt 0.379804 0.701227
vt 0.781250 1.000000
s 0
usemtl Material
f 8/15/1 11/20/1 19/37/1 17/33/1 15/29/1 13/25/1 10/18/1 6/10/1 3/4/1 7/12/1
f 8/14/2 2/3/2 5/8/2 11/21/2
f 20/39/3 5/8/3 2/3/3 1/1/3 4/6/3 9/16/3 12/23/3 14/27/3 16/31/3 18/35/3
f 8/15/4 7/12/4 1/1/4 2/3/4
usemtl 
f 7/13/5 3/5/5 4/7/5 1/2/5
f 3/5/6 6/11/6 9/17/6 4/7/6
f 6/11/7 10/19/7 12/24/7 9/17/7
f 10/19/8 13/26/8 14/28/8 12/24/8
f 13/26/9 15/30/9 16/32/9 14/28/9
f 15/30/10 17/34/10 18/36/10 16/32/10
f 17/34/11 19/38/11 20/40/11 18/36/11
f 19/38/12 11/22/12 5/9/12 20/40/12
