# Blender 3.3.1
# www.blender.org
mtllib quarterpipe2.mtl
o Cube.001
v -5.500000 -5.487519 -3.363755
v -5.500000 -5.290308 -3.363755
v -5.500000 -5.499125 -5.487939
v -5.500000 -5.499125 -5.487939
v 5.500000 -5.487519 -3.363755
v 5.500000 -5.290308 -3.363755
v 5.500000 -5.499125 -5.487939
v 5.500000 -5.499125 -5.487939
v -5.500000 -4.851389 -1.188149
v -5.500000 -4.643556 -1.260295
v 5.500000 -4.851389 -1.188149
v 5.500000 -4.643556 -1.260295
v -5.500000 -3.833384 0.773353
v -5.500000 -3.665045 0.631712
v 5.500000 -3.833384 0.773353
v 5.500000 -3.665045 0.631712
v -5.500000 -2.469718 2.394064
v -5.500000 -2.301379 2.252424
v 5.500000 -2.469718 2.394064
v 5.500000 -2.301379 2.252424
v -5.500000 -0.782960 3.829733
v -5.500000 -0.654278 3.651292
v 5.500000 -0.782960 3.829733
v 5.500000 -0.654278 3.651292
v -5.500000 1.162745 4.879154
v -5.500000 1.258651 4.681159
v 5.500000 1.162745 4.879154
v 5.500000 1.258651 4.681159
v -5.500000 3.285539 5.514801
v -5.500000 3.327243 5.298790
v 5.500000 3.285539 5.514801
v 5.500000 3.327243 5.298790
v -5.500000 5.496580 5.501586
v -5.500000 5.490286 5.501586
v 5.500000 5.496580 5.501586
v 5.500000 5.490286 5.501586
vn -1.0000 -0.0000 -0.0000
vn -0.0000 1.0000 -0.0000
vn 1.0000 -0.0000 -0.0000
vn -0.0000 -1.0000 0.0055
vn -0.0000 0.9952 -0.0978
vn -0.0000 -0.8876 0.4606
vn -0.0000 -0.9598 0.2806
vn -0.0000 0.9558 -0.2939
vn -0.0000 0.7652 -0.6438
vn -0.0000 0.8882 -0.4594
vn -0.0000 -0.6482 0.7615
vn -0.0000 -0.7652 0.6438
vn -0.0000 -0.4747 0.8801
vn -0.0000 0.6473 -0.7622
vn -0.0000 0.2861 -0.9582
vn -0.0000 0.4740 -0.8805
vn -0.0000 0.0060 1.0000
vn -0.0000 -0.2869 0.9580
vn -0.0000 -0.0000 -1.0000
vn -0.0000 0.0933 -0.9956
vt 0.375000 0.000000
vt 0.125000 0.750000
vt 0.625000 0.000000
vt 0.875000 0.750000
vt 0.375000 0.250000
vt 0.125000 0.500000
vt 0.625000 0.250000
vt 0.875000 0.500000
vt 0.375000 0.750000
vt 0.625000 0.750000
vt 0.375000 0.500000
vt 0.625000 0.500000
vt 0.125000 0.750000
vt 0.375000 0.000000
vt 0.625000 0.000000
vt 0.875000 0.750000
vt 0.375000 0.750000
vt 0.625000 0.750000
vt 0.125000 0.750000
vt 0.375000 0.000000
vt 0.875000 0.750000
vt 0.625000 0.000000
vt 0.375000 0.750000
vt 0.625000 0.750000
vt 0.125000 0.750000
vt 0.375000 0.000000
vt 0.625000 0.000000
vt 0.875000 0.750000
vt 0.375000 0.750000
vt 0.625000 0.750000
vt 0.125000 0.750000
vt 0.375000 0.000000
vt 0.625000 0.000000
vt 0.875000 0.750000
vt 0.375000 0.750000
vt 0.625000 0.750000
vt 0.125000 0.750000
vt 0.375000 0.000000
vt 0.875000 0.750000
vt 0.625000 0.000000
vt 0.375000 0.750000
vt 0.625000 0.750000
vt 0.125000 0.750000
vt 0.375000 0.000000
vt 0.625000 0.000000
vt 0.875000 0.750000
vt 0.375000 0.750000
vt 0.625000 0.750000
vt 0.125000 0.750000
vt 0.375000 1.000000
vt 0.375000 0.000000
vt 0.625000 1.000000
vt 0.625000 0.000000
vt 0.875000 0.750000
vt 0.375000 0.750000
vt 0.625000 0.750000
s 0
f 1/1/1 2/3/1 4/7/1 3/5/1
f 3/5/2 4/7/2 8/12/2 7/11/2
f 7/11/3 8/12/3 6/10/3 5/9/3
f 2/3/1 1/1/1 9/14/1 10/15/1
f 3/6/4 7/11/4 5/9/4 1/2/4
f 8/12/5 4/8/5 2/4/5 6/10/5
f 9/13/6 11/17/6 15/23/6 13/19/6
f 1/2/7 5/9/7 11/17/7 9/13/7
f 6/10/8 2/4/8 10/16/8 12/18/8
f 5/9/3 6/10/3 12/18/3 11/17/3
f 16/24/9 14/21/9 18/28/9 20/30/9
f 10/15/1 9/14/1 13/20/1 14/22/1
f 12/18/10 10/16/10 14/21/10 16/24/10
f 11/17/3 12/18/3 16/24/3 15/23/3
f 17/25/11 19/29/11 23/35/11 21/31/11
f 15/23/3 16/24/3 20/30/3 19/29/3
f 13/19/12 15/23/12 19/29/12 17/25/12
f 14/22/1 13/20/1 17/26/1 18/27/1
f 21/31/13 23/35/13 27/41/13 25/37/13
f 18/27/1 17/26/1 21/32/1 22/33/1
f 20/30/14 18/28/14 22/34/14 24/36/14
f 19/29/3 20/30/3 24/36/3 23/35/3
f 28/42/15 26/39/15 30/46/15 32/48/15
f 22/33/1 21/32/1 25/38/1 26/40/1
f 24/36/16 22/34/16 26/39/16 28/42/16
f 23/35/3 24/36/3 28/42/3 27/41/3
f 29/43/17 31/47/17 35/55/17 33/49/17
f 27/41/3 28/42/3 32/48/3 31/47/3
f 25/37/18 27/41/18 31/47/18 29/43/18
f 26/40/1 25/38/1 29/44/1 30/45/1
f 35/55/19 36/56/19 34/52/19 33/50/19
f 30/45/1 29/44/1 33/51/1 34/53/1
f 32/48/20 30/46/20 34/54/20 36/56/20
f 31/47/3 32/48/3 36/56/3 35/55/3
