# Blender 3.3.1
# www.blender.org
mtllib straightdip1.mtl
o Cube
v -5.000000 -0.500000 4.250000
v -5.000000 1.500000 4.250000
v -5.000000 -0.500000 -4.250000
v -5.000000 1.500000 -4.250000
v 5.000000 -0.500000 4.250000
v 5.000000 1.500000 4.250000
v 5.000000 -0.500000 -4.250000
v 5.000000 1.500000 -4.250000
v -5.000000 -0.500000 -3.825000
v -5.000000 -0.500000 -3.400000
v -5.000000 -0.500000 -2.975000
v -5.000000 -0.500000 -2.550000
v -5.000000 -0.500000 -2.125000
v -5.000000 -0.500000 -1.700000
v -5.000000 -0.500000 -1.275000
v -5.000000 -0.500000 -0.850000
v -5.000000 -0.500000 -0.425000
v -5.000000 -0.500000 0.000000
v -5.000000 -0.500000 0.425000
v -5.000000 -0.500000 0.850000
v -5.000000 -0.500000 1.275000
v -5.000000 -0.500000 1.700000
v -5.000000 -0.500000 2.125000
v -5.000000 -0.500000 2.550000
v -5.000000 -0.500000 2.975000
v -5.000000 -0.500000 3.400000
v -5.000000 -0.500000 3.825000
v -5.000000 1.255038 3.825000
v -5.000000 1.093179 3.400000
v -5.000000 0.958055 2.975000
v -5.000000 0.834756 2.550000
v -5.000000 0.729050 2.125000
v -5.000000 0.643032 1.700000
v -5.000000 0.581899 1.275000
v -5.000000 0.535958 0.850000
v -5.000000 0.510423 0.425000
v -5.000000 0.498646 -0.000000
v -5.000000 0.510423 -0.425000
v -5.000000 0.535958 -0.850000
v -5.000000 0.581899 -1.275000
v -5.000000 0.643032 -1.700000
v -5.000000 0.729050 -2.125000
v -5.000000 0.834756 -2.550000
v -5.000000 0.958055 -2.975000
v -5.000000 1.093179 -3.400000
v -5.000000 1.255038 -3.825000
v 5.000000 -0.500000 3.825000
v 5.000000 -0.500000 3.400000
v 5.000000 -0.500000 2.975000
v 5.000000 -0.500000 2.550000
v 5.000000 -0.500000 2.125000
v 5.000000 -0.500000 1.700000
v 5.000000 -0.500000 1.275000
v 5.000000 -0.500000 0.850000
v 5.000000 -0.500000 0.425000
v 5.000000 -0.500000 0.000000
v 5.000000 -0.500000 -0.425000
v 5.000000 -0.500000 -0.850000
v 5.000000 -0.500000 -1.275000
v 5.000000 -0.500000 -1.700000
v 5.000000 -0.500000 -2.125000
v 5.000000 -0.500000 -2.549999
v 5.000000 -0.500000 -2.974999
v 5.000000 -0.500000 -3.399999
v 5.000000 -0.500000 -3.824999
v 5.000000 1.255038 -3.825000
v 5.000000 1.093179 -3.400000
v 5.000000 0.958055 -2.975000
v 5.000000 0.834756 -2.550000
v 5.000000 0.729050 -2.125000
v 5.000000 0.643032 -1.700000
v 5.000000 0.581899 -1.275000
v 5.000000 0.535958 -0.850000
v 5.000000 0.510423 -0.425000
v 5.000000 0.498646 -0.000000
v 5.000000 0.510423 0.425000
v 5.000000 0.535958 0.850000
v 5.000000 0.581899 1.275000
v 5.000000 0.643032 1.700000
v 5.000000 0.729049 2.125000
v 5.000000 0.834756 2.549999
v 5.000000 0.958055 2.974999
v 5.000000 1.093179 3.399999
v 5.000000 1.255038 3.824999
vn -1.0000 -0.0000 -0.0000
vn -0.0000 -0.0000 -1.0000
vn 1.0000 -0.0000 -0.0000
vn -0.0000 -0.0000 1.0000
vn -0.0000 -1.0000 -0.0000
vn -0.0000 0.8664 -0.4994
vn -0.0000 0.8664 0.4994
vn -0.0000 0.9345 0.3559
vn -0.0000 0.9530 0.3030
vn -0.0000 0.9604 0.2786
vn -0.0000 0.9704 0.2414
vn -0.0000 0.9801 0.1984
vn -0.0000 0.9898 0.1424
vn -0.0000 0.9942 0.1075
vn -0.0000 0.9982 0.0600
vn -0.0000 0.9996 0.0277
vn -0.0000 0.9996 -0.0277
vn -0.0000 0.9982 -0.0600
vn -0.0000 0.9942 -0.1075
vn -0.0000 0.9898 -0.1424
vn -0.0000 0.9801 -0.1984
vn -0.0000 0.9704 -0.2414
vn -0.0000 0.9604 -0.2786
vn -0.0000 0.9530 -0.3030
vn -0.0000 0.9345 -0.3559
vt 0.375000 1.000000
vt 0.125000 0.750000
vt 0.375000 0.000000
vt 0.625000 1.000000
vt 0.875000 0.750000
vt 0.625000 0.000000
vt 0.375000 0.250000
vt 0.125000 0.500000
vt 0.625000 0.250000
vt 0.875000 0.500000
vt 0.375000 0.750000
vt 0.625000 0.750000
vt 0.375000 0.500000
vt 0.625000 0.500000
vt 0.125000 0.512500
vt 0.375000 0.237500
vt 0.125000 0.525000
vt 0.375000 0.225000
vt 0.125000 0.537500
vt 0.375000 0.212500
vt 0.125000 0.550000
vt 0.375000 0.200000
vt 0.125000 0.562500
vt 0.375000 0.187500
vt 0.125000 0.575000
vt 0.375000 0.175000
vt 0.125000 0.587500
vt 0.375000 0.162500
vt 0.125000 0.600000
vt 0.375000 0.150000
vt 0.125000 0.612500
vt 0.375000 0.137500
vt 0.125000 0.625000
vt 0.375000 0.125000
vt 0.125000 0.637500
vt 0.375000 0.112500
vt 0.125000 0.650000
vt 0.375000 0.100000
vt 0.125000 0.662500
vt 0.375000 0.087500
vt 0.125000 0.675000
vt 0.375000 0.075000
vt 0.125000 0.687500
vt 0.375000 0.062500
vt 0.125000 0.700000
vt 0.375000 0.050000
vt 0.125000 0.712500
vt 0.375000 0.037500
vt 0.125000 0.725000
vt 0.375000 0.025000
vt 0.125000 0.737500
vt 0.375000 0.012500
vt 0.875000 0.737500
vt 0.625000 0.012500
vt 0.875000 0.725000
vt 0.625000 0.025000
vt 0.875000 0.712500
vt 0.625000 0.037500
vt 0.875000 0.700000
vt 0.625000 0.050000
vt 0.875000 0.687500
vt 0.625000 0.062500
vt 0.875000 0.675000
vt 0.625000 0.075000
vt 0.875000 0.662500
vt 0.625000 0.087500
vt 0.875000 0.650000
vt 0.625000 0.100000
vt 0.875000 0.637500
vt 0.625000 0.112500
vt 0.875000 0.625000
vt 0.625000 0.125000
vt 0.875000 0.612500
vt 0.625000 0.137500
vt 0.875000 0.600000
vt 0.625000 0.150000
vt 0.875000 0.587500
vt 0.625000 0.162500
vt 0.875000 0.575000
vt 0.625000 0.175000
vt 0.875000 0.562500
vt 0.625000 0.187500
vt 0.875000 0.550000
vt 0.625000 0.200000
vt 0.875000 0.537500
vt 0.625000 0.212500
vt 0.875000 0.525000
vt 0.625000 0.225000
vt 0.875000 0.512500
vt 0.625000 0.237500
vt 0.375000 0.737500
vt 0.375000 0.725000
vt 0.375000 0.712500
vt 0.375000 0.700000
vt 0.375000 0.687500
vt 0.375000 0.675000
vt 0.375000 0.662500
vt 0.375000 0.650000
vt 0.375000 0.637500
vt 0.375000 0.625000
vt 0.375000 0.612500
vt 0.375000 0.600000
vt 0.375000 0.587500
vt 0.375000 0.575000
vt 0.375000 0.562500
vt 0.375000 0.550000
vt 0.375000 0.537500
vt 0.375000 0.525000
vt 0.375000 0.512500
vt 0.625000 0.512500
vt 0.625000 0.525000
vt 0.625000 0.537500
vt 0.625000 0.550000
vt 0.625000 0.562500
vt 0.625000 0.575000
vt 0.625000 0.587500
vt 0.625000 0.600000
vt 0.625000 0.612500
vt 0.625000 0.625000
vt 0.625000 0.637500
vt 0.625000 0.650000
vt 0.625000 0.662500
vt 0.625000 0.675000
vt 0.625000 0.687500
vt 0.625000 0.700000
vt 0.625000 0.712500
vt 0.625000 0.725000
vt 0.625000 0.737500
s 0
usemtl Material.001
f 9/16/1 46/90/1 4/9/1 3/7/1
f 3/7/2 4/9/2 8/14/2 7/13/2
f 47/91/3 84/128/3 6/12/3 5/11/3
f 5/11/4 6/12/4 2/4/4 1/1/4
f 27/51/5 47/91/5 5/11/5 1/2/5
f 84/128/6 28/53/6 2/5/6 6/12/6
f 8/14/7 4/10/7 46/89/7 66/110/7
f 66/110/8 46/89/8 45/87/8 67/111/8
f 67/111/9 45/87/9 44/85/9 68/112/9
f 68/112/10 44/85/10 43/83/10 69/113/10
f 69/113/11 43/83/11 42/81/11 70/114/11
f 70/114/12 42/81/12 41/79/12 71/115/12
f 71/115/13 41/79/13 40/77/13 72/116/13
f 72/116/14 40/77/14 39/75/14 73/117/14
f 73/117/15 39/75/15 38/73/15 74/118/15
f 74/118/16 38/73/16 37/71/16 75/119/16
f 75/119/17 37/71/17 36/69/17 76/120/17
f 76/120/18 36/69/18 35/67/18 77/121/18
f 77/121/19 35/67/19 34/65/19 78/122/19
f 78/122/20 34/65/20 33/63/20 79/123/20
f 79/123/21 33/63/21 32/61/21 80/124/21
f 80/124/22 32/61/22 31/59/22 81/125/22
f 81/125/23 31/59/23 30/57/23 82/126/23
f 82/126/24 30/57/24 29/55/24 83/127/24
f 83/127/25 29/55/25 28/53/25 84/128/25
f 3/8/5 7/13/5 65/109/5 9/15/5
f 9/15/5 65/109/5 64/108/5 10/17/5
f 10/17/5 64/108/5 63/107/5 11/19/5
f 11/19/5 63/107/5 62/106/5 12/21/5
f 12/21/5 62/106/5 61/105/5 13/23/5
f 13/23/5 61/105/5 60/104/5 14/25/5
f 14/25/5 60/104/5 59/103/5 15/27/5
f 15/27/5 59/103/5 58/102/5 16/29/5
f 16/29/5 58/102/5 57/101/5 17/31/5
f 17/31/5 57/101/5 56/100/5 18/33/5
f 18/33/5 56/100/5 55/99/5 19/35/5
f 19/35/5 55/99/5 54/98/5 20/37/5
f 20/37/5 54/98/5 53/97/5 21/39/5
f 21/39/5 53/97/5 52/96/5 22/41/5
f 22/41/5 52/96/5 51/95/5 23/43/5
f 23/43/5 51/95/5 50/94/5 24/45/5
f 24/45/5 50/94/5 49/93/5 25/47/5
f 25/47/5 49/93/5 48/92/5 26/49/5
f 26/49/5 48/92/5 47/91/5 27/51/5
f 7/13/3 8/14/3 66/110/3 65/109/3
f 65/109/3 66/110/3 67/111/3 64/108/3
f 64/108/3 67/111/3 68/112/3 63/107/3
f 63/107/3 68/112/3 69/113/3 62/106/3
f 62/106/3 69/113/3 70/114/3 61/105/3
f 61/105/3 70/114/3 71/115/3 60/104/3
f 60/104/3 71/115/3 72/116/3 59/103/3
f 59/103/3 72/116/3 73/117/3 58/102/3
f 58/102/3 73/117/3 74/118/3 57/101/3
f 57/101/3 74/118/3 75/119/3 56/100/3
f 56/100/3 75/119/3 76/120/3 55/99/3
f 55/99/3 76/120/3 77/121/3 54/98/3
f 54/98/3 77/121/3 78/122/3 53/97/3
f 53/97/3 78/122/3 79/123/3 52/96/3
f 52/96/3 79/123/3 80/124/3 51/95/3
f 51/95/3 80/124/3 81/125/3 50/94/3
f 50/94/3 81/125/3 82/126/3 49/93/3
f 49/93/3 82/126/3 83/127/3 48/92/3
f 48/92/3 83/127/3 84/128/3 47/91/3
f 1/3/1 2/6/1 28/54/1 27/52/1
f 27/52/1 28/54/1 29/56/1 26/50/1
f 26/50/1 29/56/1 30/58/1 25/48/1
f 25/48/1 30/58/1 31/60/1 24/46/1
f 24/46/1 31/60/1 32/62/1 23/44/1
f 23/44/1 32/62/1 33/64/1 22/42/1
f 22/42/1 33/64/1 34/66/1 21/40/1
f 21/40/1 34/66/1 35/68/1 20/38/1
f 20/38/1 35/68/1 36/70/1 19/36/1
f 19/36/1 36/70/1 37/72/1 18/34/1
f 18/34/1 37/72/1 38/74/1 17/32/1
f 17/32/1 38/74/1 39/76/1 16/30/1
f 16/30/1 39/76/1 40/78/1 15/28/1
f 15/28/1 40/78/1 41/80/1 14/26/1
f 14/26/1 41/80/1 42/82/1 13/24/1
f 13/24/1 42/82/1 43/84/1 12/22/1
f 12/22/1 43/84/1 44/86/1 11/20/1
f 11/20/1 44/86/1 45/88/1 10/18/1
f 10/18/1 45/88/1 46/90/1 9/16/1
