# Blender 3.3.1
# www.blender.org
mtllib tilt1.mtl
o Cube
v 5.000000 4.500000 -5.000000
v 5.000000 -0.500000 -5.000000
v 5.000000 -0.500000 5.000000
v 5.000000 -0.500000 5.000000
v -5.000000 4.500000 -5.000000
v -5.000000 -0.500000 -5.000000
v -5.000000 -0.500000 5.000000
v -5.000000 -0.500000 5.000000
vn -0.0000 0.8944 0.4472
vn -0.0000 -0.0000 -1.0000
vn -0.0000 1.0000 -0.0000
vn -1.0000 -0.0000 -0.0000
vn -0.0000 -1.0000 -0.0000
vn 1.0000 -0.0000 -0.0000
vt 0.625000 0.500000
vt 0.375000 0.500000
vt 0.625000 0.750000
vt 0.375000 0.750000
vt 0.875000 0.500000
vt 0.625000 0.250000
vt 0.125000 0.500000
vt 0.375000 0.250000
vt 0.875000 0.750000
vt 0.625000 1.000000
vt 0.625000 0.000000
vt 0.375000 1.000000
vt 0.375000 0.000000
vt 0.125000 0.750000
s 0
usemtl Material.001
f 1/1/1 5/5/1 7/9/1 3/3/1
f 4/4/2 3/3/3 7/10/2 8/12/3
f 8/13/4 7/11/4 5/6/4 6/8/4
f 6/7/5 2/2/5 4/4/5 8/14/5
f 2/2/6 1/1/6 3/3/6 4/4/6
f 6/8/2 5/6/2 1/1/2 2/2/2
