# Blender 3.3.1
# www.blender.org
mtllib tilt2.mtl
o Cube
v -4.999999 -0.500000 5.000001
v -4.999999 -0.500000 5.000001
v -5.000001 1.500000 -4.999999
v -5.000001 -0.500000 -4.999999
v 5.000001 -0.500000 4.999999
v 5.000001 -0.500000 4.999999
v 4.999999 1.500000 -5.000001
v 4.999999 -0.500000 -5.000001
vn -0.0000 0.9806 0.1961
vn -0.0000 -0.0000 -1.0000
vn 1.0000 -0.0000 -0.0000
vn -0.0000 -1.0000 -0.0000
vn -1.0000 -0.0000 -0.0000
vn -0.0000 1.0000 -0.0000
vt 1.750000 0.500000
vt -0.750000 0.500000
vt 1.750000 3.000000
vt -0.750000 3.000000
vt 4.250000 0.500000
vt 1.750000 -2.000000
vt -3.250000 0.500000
vt -0.750000 -2.000000
vt 4.250000 3.000000
vt 1.750000 5.500000
vt 1.750000 -4.500000
vt -0.750000 5.500000
vt -0.750000 -4.500000
vt -3.250000 3.000000
s 0
usemtl Material
f 1/1/1 5/5/1 7/9/1 3/3/1
f 4/4/2 3/3/2 7/10/2 8/12/2
f 8/13/3 7/11/3 5/6/3 6/8/3
f 6/7/4 2/2/4 4/4/4 8/14/4
f 2/2/5 1/1/5 3/3/5 4/4/5
f 6/8/6 5/6/6 1/1/6 2/2/6
